<?xml version="1.0" encoding="UTF-8"?>
<svg xmlns="http://www.w3.org/2000/svg" viewBox="0 0 1024 1024">
    <style>
    path { 
        <!-- fill: #DADBD2; -->
        fill: #303030; 
        }

    @media (prefers-color-scheme: dark) {
        path { 
            fill: #DADBD2; 
        }
    }
    </style>
<path d="M0 0 C1.85629532 0.00223572 1.85629532 0.00223572 3.75009155 0.0045166 C24.00831598 0.0481692 43.95619329 0.84572942 64.0625 3.3125 C65.25294922 3.45171875 66.44339844 3.5909375 67.66992188 3.734375 C135.43301404 11.82549048 215.45540103 32.2744427 261.2265625 86.9765625 C285.34908161 117.66861872 299.51989609 151.78178554 295.375 191.4375 C293.50325483 206.94398605 288.88708019 221.31218673 282.0625 235.3125 C281.57910156 236.31925781 281.09570312 237.32601562 280.59765625 238.36328125 C271.68414984 255.81992677 255.44161164 270.53275491 240.0625 282.3125 C238.81206025 283.29110502 237.56209548 284.27031714 236.3125 285.25 C228.94580037 290.98775375 221.45341038 296.52247674 213.796875 301.8671875 C212.93665237 302.46829849 212.07642975 303.06940948 211.19013977 303.68873596 C201.63256291 310.34289182 191.9511038 316.80773101 182.25 323.25 C180.37609173 324.49675464 178.50223162 325.74358167 176.62841797 326.99047852 C166.85341488 333.49058395 157.062638 339.96409917 147.21533203 346.35424805 C137.6477632 352.56655426 128.11834728 358.83673815 118.59075928 365.11013794 C116.64589648 366.39044291 114.70063828 367.67014747 112.75494385 368.94918823 C101.10123221 376.61074065 89.51415595 384.35181679 78.0625 392.3125 C77.13155518 392.95767578 76.20061035 393.60285156 75.24145508 394.26757812 C49.35195778 412.24491116 24.25863027 431.10506855 -0.32373047 450.82568359 C-4.5900353 454.24515629 -8.88149882 457.63070348 -13.1875 461 C-18.27818671 464.98672502 -23.31332647 469.03357064 -28.3046875 473.14453125 C-30.05479526 474.58564373 -31.80999612 476.02059403 -33.5703125 477.44921875 C-44.6284309 486.42789506 -55.41482555 495.71200047 -65.9375 505.3125 C-66.91589844 506.19808594 -67.89429688 507.08367187 -68.90234375 507.99609375 C-78.67674139 516.86433777 -87.84576888 525.8488209 -95.9375 536.3125 C-96.36240723 536.86099609 -96.78731445 537.40949219 -97.22509766 537.97460938 C-106.27505922 549.77455926 -113.4966219 561.92791166 -111.9375 577.3125 C-109.56362703 586.185961 -103.62991236 590.82777332 -95.9375 595.3125 C-77.51125636 605.27410291 -54.35174204 606.9705801 -33.9375 609.3125 C-33.04675781 609.41852539 -32.15601563 609.52455078 -31.23828125 609.63378906 C-2.07951398 612.5985471 29.09870142 611.64779643 58.0625 607.3125 C58.73055664 607.21304077 59.39861328 607.11358154 60.08691406 607.0111084 C65.23214009 606.2395029 70.36785168 605.41657706 75.5 604.5625 C77.44217407 604.23934814 77.44217407 604.23934814 79.42358398 603.90966797 C100.21553161 600.30823459 120.76799924 595.1890923 141.234375 590.0859375 C141.95441271 589.90645569 142.67445042 589.72697388 143.41630745 589.54205322 C150.02910645 587.89233314 156.64028044 586.23619248 163.24853516 584.56835938 C254.7261034 561.50079179 254.7261034 561.50079179 293.0625 580.3125 C293.99449219 580.76496094 294.92648437 581.21742188 295.88671875 581.68359375 C302.62092911 585.14931707 308.31339761 589.40941937 314.0625 594.3125 C314.75085938 594.86679687 315.43921875 595.42109375 316.1484375 595.9921875 C321.93448755 600.77196797 326.50148639 606.37659601 331.0625 612.3125 C331.69414063 613.12847656 332.32578125 613.94445312 332.9765625 614.78515625 C343.79826447 629.44451023 347.59797759 644.3860807 346.0625 662.3125 C345.21971918 666.31684778 343.93416399 669.68615102 342.0625 673.3125 C341.711875 674.06144531 341.36125 674.81039062 341 675.58203125 C328.29038075 700.78061663 300.6541716 715.30490002 274.9440918 723.79931641 C254.7859145 730.09383866 233.47823596 732.43137156 212.42578125 732.515625 C211.24475327 732.52263931 210.06372528 732.52965363 208.84690857 732.53688049 C205.02290003 732.55437298 201.19904719 732.56074071 197.375 732.5625 C196.05850464 732.56317474 194.74200928 732.56384949 193.38562012 732.56454468 C171.35365788 732.55636481 149.52929636 731.73061238 127.60028076 729.5625 C124.98942738 729.30530152 122.37787828 729.056352 119.76611328 728.80859375 C100.63735495 726.97955854 81.56453956 724.83104417 62.52734375 722.2109375 C9.60754074 714.94645833 -35.89318737 717.32561268 -88.29034424 727.99523926 C-152.71356067 741.11268589 -152.71356067 741.11268589 -177.9375 744.3125 C-178.8337207 744.43802246 -179.72994141 744.56354492 -180.65332031 744.69287109 C-206.37315237 748.27924207 -235.49910466 748.75372605 -260.9375 743.3125 C-261.74832031 743.14089355 -262.55914062 742.96928711 -263.39453125 742.79248047 C-290.10437369 736.90895415 -318.09364306 724.29895901 -334.0859375 701.234375 C-345.35823254 683.44602756 -348.43306021 663.86363241 -343.9375 643.3125 C-337.22399368 617.56077968 -322.73506477 594.4649544 -302.296875 577.296875 C-300.40622763 575.70672787 -298.55047008 574.09261725 -296.703125 572.453125 C-279.12910717 556.90879584 -260.62013534 543.41708837 -239.9609375 532.26171875 C-238.40153191 531.41869453 -238.40153191 531.41869453 -236.81062317 530.55863953 C-225.2085579 524.32693408 -213.42790361 518.4644456 -201.625 512.625 C-187.66243289 505.70477414 -173.7437642 498.73247827 -159.98983765 491.40487671 C-158.07142705 490.38378398 -156.15035581 489.36796605 -154.2277832 488.35473633 C-138.85930878 480.2473378 -123.70921268 471.85235798 -108.76513672 462.98144531 C-106.02173371 461.36221694 -103.26564466 459.76739945 -100.50390625 458.1796875 C-85.54060808 449.53709287 -71.20255259 440.04731503 -56.9375 430.3125 C-56.01130859 429.68166504 -55.08511719 429.05083008 -54.13085938 428.40087891 C-42.84942307 420.68965069 -31.92214855 412.57774889 -21.08984375 404.25 C-16.25320995 400.53801723 -11.35754537 396.91285908 -6.4375 393.3125 C1.25463329 387.67762139 8.85693996 381.93266207 16.42871094 376.13720703 C21.04761538 372.60313625 25.68396423 369.09737433 30.35791016 365.63647461 C38.87251763 359.32443422 47.05430174 352.65496376 55.19238281 345.86669922 C57.6951996 343.78668203 60.22226203 341.73711745 62.75 339.6875 C73.31871487 331.03746257 83.54156641 322.0577933 93.52294922 312.73876953 C95.90831745 310.5289184 98.33422989 308.36401915 100.75 306.1875 C106.0894008 301.29660887 111.24657051 296.23622174 116.375 291.125 C117.5045813 290.00230713 117.5045813 290.00230713 118.65698242 288.85693359 C123.33087281 284.17011333 127.75096492 279.33243849 132.0625 274.3125 C133.01138541 273.24073735 133.961824 272.17034711 134.9140625 271.1015625 C146.80194749 257.61195927 157.37561322 243.06905589 166.0625 227.3125 C166.41683105 226.67103027 166.77116211 226.02956055 167.13623047 225.36865234 C177.48913063 206.34537404 184.64560856 183.79996094 178.4375 162.1875 C171.79356372 144.06136025 157.39473828 130.3468664 140.22583008 122.0546875 C117.17606294 111.38613787 91.09495249 107.31599249 66.0625 104.3125 C64.85787109 104.16151855 63.65324219 104.01053711 62.41210938 103.85498047 C18.9880119 98.64341414 -27.56068075 98.74017659 -70.9375 104.3125 C-71.62644348 104.39971313 -72.31538696 104.48692627 -73.02520752 104.57678223 C-124.82489837 111.17111221 -181.79897334 123.36372576 -217.9375 164.3125 C-226.98313191 176.09608179 -229.38411502 188.10061291 -230.72363281 202.59643555 C-231.62618646 211.42498611 -233.78821825 219.40039172 -240.53515625 225.5625 C-251.8984113 233.84012319 -265.48462654 237.858193 -278.9375 241.3125 C-279.69337402 241.50827637 -280.44924805 241.70405273 -281.22802734 241.90576172 C-294.69407893 245.16682109 -309.49175461 244.68726216 -321.7109375 237.734375 C-324.24563521 236.04457653 -326.59399326 234.25711198 -328.9375 232.3125 C-329.87335938 231.56226563 -329.87335938 231.56226563 -330.828125 230.796875 C-342.57725459 220.31792158 -347.76628129 203.41265489 -349.9375 188.3125 C-351.23771497 164.41185867 -348.88410442 142.48231014 -342.0625 119.5 C-341.74732422 118.43217285 -341.43214844 117.3643457 -341.10742188 116.26416016 C-333.45559322 91.95541991 -312.87105842 74.76377771 -290.95703125 63.15625 C-287.62590771 61.4474822 -284.25819183 59.82302671 -280.87109375 58.22851562 C-279.04993785 57.36576601 -277.24314357 56.47288588 -275.4375 55.578125 C-263.93513218 49.98099066 -251.98839589 45.57535263 -239.9375 41.3125 C-238.39811768 40.76722656 -238.39811768 40.76722656 -236.82763672 40.2109375 C-187.50955395 23.00569576 -135.46370107 13.94099073 -83.9375 6.3125 C-83.18774902 6.20121765 -82.43799805 6.0899353 -81.66552734 5.97528076 C-77.05102782 5.2931906 -72.43339033 4.6376619 -67.8125 4 C-66.76884277 3.85272461 -65.72518555 3.70544922 -64.64990234 3.55371094 C-43.1736076 0.71765779 -21.64157832 -0.06504734 0 0 Z "  transform="translate(513.9375,138.6875)"/>
</svg>
